<?xml version="1.0" encoding="UTF-8"?>
<svg version="1.1" xmlns="http://www.w3.org/2000/svg" width="609" height="80">
<path d="M0 0 C200.97 0 401.94 0 609 0 C609 26.4 609 52.8 609 80 C408.03 80 207.06 80 0 80 C0 53.6 0 27.2 0 0 Z " fill="#FAFBFC" transform="translate(0,0)"/>
<path d="M0 0 C12 0 12 0 14.68359375 1.84375 C15.26238281 2.7203125 15.84117187 3.596875 16.4375 4.5 C17.14261719 5.49386719 17.84773438 6.48773438 18.57421875 7.51171875 C18.9511084 8.06520996 19.32799805 8.61870117 19.71630859 9.18896484 C22.20973609 12.7066988 25.00944914 15.98642057 27.75 19.3125 C28.82896537 20.64124513 29.90712019 21.97064894 30.984375 23.30078125 C33.62662751 26.5602056 36.31290513 29.77548616 39 33 C39.33 22.11 39.66 11.22 40 0 C44.29 0 48.58 0 53 0 C53 18.81 53 37.62 53 57 C41 57 41 57 37.95703125 54.76171875 C37.24933594 53.74722656 36.54164063 52.73273438 35.8125 51.6875 C34.99908846 50.57914036 34.18527768 49.47107362 33.37109375 48.36328125 C32.97776855 47.79947754 32.58444336 47.23567383 32.17919922 46.65478516 C30.3734726 44.12078619 28.37118661 41.76018707 26.375 39.375 C22.2063338 34.28362507 18.11160783 29.13950979 14 24 C13.67 34.89 13.34 45.78 13 57 C8.71 57 4.42 57 0 57 C0 38.19 0 19.38 0 0 Z " fill="#2462A7" transform="translate(278,13)"/>
<path d="M0 0 C14.52 0 29.04 0 44 0 C44 3.3 44 6.6 44 10 C33.77 10 23.54 10 13 10 C13 14.29 13 18.58 13 23 C22.24 23 31.48 23 41 23 C41 26.63 41 30.26 41 34 C31.76 34 22.52 34 13 34 C13 38.29 13 42.58 13 47 C23.56 47 34.12 47 45 47 C45 50.3 45 53.6 45 57 C30.15 57 15.3 57 0 57 C0 38.19 0 19.38 0 0 Z " fill="#2664A9" transform="translate(407,13)"/>
<path d="M0 0 C16.17 0 32.34 0 49 0 C49 2.97 49 5.94 49 9 C48.34 9 47.68 9 47 9 C46.61328125 9.85078125 46.61328125 9.85078125 46.21875 10.71875 C44.87139419 13.2407237 43.30429987 15.28159852 41.5 17.5 C40.78714844 18.37914063 40.07429688 19.25828125 39.33984375 20.1640625 C36.18569929 23.98694878 32.99464886 27.77816617 29.78515625 31.5546875 C25.71391678 36.59091921 21.88560207 41.81919724 18 47 C28.56 47 39.12 47 50 47 C50 50.3 50 53.6 50 57 C33.17 57 16.34 57 -1 57 C-1 48.0209205 -1 48.0209205 2.125 44.5625 C2.84945312 43.72847656 3.57390625 42.89445312 4.3203125 42.03515625 C4.73829102 41.56609863 5.15626953 41.09704102 5.58691406 40.61376953 C8.47608334 37.3142863 11.22088069 33.89210553 14 30.5 C15.14573476 29.11450181 16.29156758 27.72908471 17.4375 26.34375 C21.33194983 21.59525416 25.1635915 16.79551062 29 12 C19.43 11.67 9.86 11.34 0 11 C0 7.37 0 3.74 0 0 Z " fill="#2765A9" transform="translate(163,13)"/>
<path d="M0 0 C14.52 0 29.04 0 44 0 C44 3.3 44 6.6 44 10 C33.77 10 23.54 10 13 10 C13 14.62 13 19.24 13 24 C21.91 24 30.82 24 40 24 C40 26.97 40 29.94 40 33 C31.09 33 22.18 33 13 33 C13 37.62 13 42.24 13 47 C23.56 47 34.12 47 45 47 C45 50.3 45 53.6 45 57 C30.15 57 15.3 57 0 57 C0 38.19 0 19.38 0 0 Z " fill="#2362A7" transform="translate(222,13)"/>
<path d="M0 0 C0.70342529 0.00273926 1.40685059 0.00547852 2.1315918 0.00830078 C9.0833457 0.1477044 14.4315728 1.4752152 20.1875 5.3125 C19.4375 11.9375 19.4375 11.9375 17.1875 15.3125 C14.49167039 14.83676536 12.10761763 14.28016666 9.5625 13.25 C4.27753808 11.78195502 -2.01084123 11.09438749 -7.1484375 13.328125 C-7.69757813 13.65296875 -8.24671875 13.9778125 -8.8125 14.3125 C-8.8125 16.2925 -8.8125 18.2725 -8.8125 20.3125 C-4.23650634 22.4915446 0.28925646 23.92883197 5.1875 25.25 C11.92077999 27.14418174 16.8270672 28.70997153 21.625 34 C23.91472578 38.85421866 24.20500016 43.12645263 22.5625 48.26953125 C20.10534561 53.30450387 16.1060196 55.86838964 11.1875 58.3125 C1.76173331 61.45442223 -10.8067464 60.21685676 -19.78125 56.3828125 C-21.8125 55.3125 -21.8125 55.3125 -24.8125 53.3125 C-24.38992724 51.8289999 -23.94893678 50.35073576 -23.5 48.875 C-23.25636719 48.05128906 -23.01273437 47.22757813 -22.76171875 46.37890625 C-22.29185547 45.35603516 -22.29185547 45.35603516 -21.8125 44.3125 C-20.3275 43.8175 -20.3275 43.8175 -18.8125 43.3125 C-17.2346875 44.2715625 -17.2346875 44.2715625 -15.625 45.25 C-9.11558242 48.77846934 0.52352216 48.2878287 7.671875 46.79296875 C8.17203125 46.63441406 8.6721875 46.47585937 9.1875 46.3125 C8.90201137 42.53082385 8.90201137 42.53082385 7.1875 39.3125 C3.36465798 37.36455502 -0.66920963 36.37449861 -4.8125 35.3125 C-18.11412636 31.56169752 -18.11412636 31.56169752 -22.125 26.25 C-24.46437206 21.74312811 -24.61560147 17.27042237 -23.8125 12.3125 C-21.04074778 6.55578385 -16.96943242 3.58347279 -11.10546875 1.22265625 C-7.35625805 0.18639754 -3.85901547 -0.03031001 0 0 Z " fill="#2866A9" transform="translate(483.8125,11.6875)"/>
<path d="M0 0 C2.31 0 4.62 0 7 0 C7 16.83 7 33.66 7 51 C7.66 51 8.32 51 9 51 C9.38671875 50.12021484 9.38671875 50.12021484 9.78125 49.22265625 C11.09506472 46.82662877 12.5218401 45.31088448 14.5 43.4375 C16.72096733 41.32475777 18.27742417 39.58386374 20 37 C20.66 37 21.32 37 22 37 C22.4021875 36.1028125 22.4021875 36.1028125 22.8125 35.1875 C24.03854802 32.92899048 24.93534581 31.52937348 27 30 C29.2421875 29.578125 29.2421875 29.578125 32 30 C34.1491769 31.78663019 35.93903847 33.46395503 37.8125 35.5 C38.31458984 36.02464844 38.81667969 36.54929688 39.33398438 37.08984375 C40.56762133 38.38222532 41.78541625 39.68969599 43 41 C45.97117474 39.68462163 47.83021526 38.35621334 49.91796875 35.875 C50.44624268 35.2550415 50.9745166 34.63508301 51.51879883 33.99633789 C52.06947021 33.33754639 52.6201416 32.67875488 53.1875 32 C54.34036672 30.64386853 55.49401649 29.28840237 56.6484375 27.93359375 C57.49680176 26.93368408 57.49680176 26.93368408 58.36230469 25.91357422 C61.82464822 21.86797961 65.41507826 17.93692956 69 14 C67.700625 14.020625 66.40125 14.04125 65.0625 14.0625 C63.70834367 14.08399454 62.35243917 14.07148199 61 14 C60 13 60 13 59.75 10.5625 C59.8325 9.716875 59.915 8.87125 60 8 C63.46941829 5.68705447 65.76650915 5.42221971 69.875 4.875 C71.69644531 4.62363281 71.69644531 4.62363281 73.5546875 4.3671875 C76.41952364 4.06186483 79.12583353 3.8409133 82 4 C83 5 83 5 83.11352539 7.13305664 C83.10567017 8.50772095 83.10567017 8.50772095 83.09765625 9.91015625 C83.09282227 11.39418945 83.09282227 11.39418945 83.08789062 12.90820312 C83.07532227 14.46958008 83.07532227 14.46958008 83.0625 16.0625 C83.05798828 17.10728516 83.05347656 18.15207031 83.04882812 19.22851562 C83.03699913 21.8190666 83.02051689 24.40950559 83 27 C81.02 27 79.04 27 77 27 C76.505 23.04 76.505 23.04 76 19 C69.31818429 25.46627327 63.20732423 32.45183495 57.375 39.6875 C54.71859756 42.94657665 52.05543684 46.17415302 49.1875 49.25 C48.66542969 49.81203125 48.14335938 50.3740625 47.60546875 50.953125 C46 52 46 52 44.16015625 52.01953125 C40.9155929 50.48819122 38.68823384 48.00052534 36.25 45.4375 C35.49009766 44.65729492 35.49009766 44.65729492 34.71484375 43.86132812 C33.46965595 42.58089916 32.23388498 41.29132446 31 40 C28.08557777 41.30634321 26.12688938 42.65763537 23.9765625 45.01171875 C23.43 45.60533203 22.8834375 46.19894531 22.3203125 46.81054688 C21.76085937 47.42994141 21.20140625 48.04933594 20.625 48.6875 C20.07328125 49.28755859 19.5215625 49.88761719 18.953125 50.50585938 C17.8434749 51.71839957 16.74106304 52.93760358 15.64599609 54.16333008 C14.53917852 55.3983625 13.41667806 56.61950015 12.27978516 57.8269043 C9.1133117 61.28531208 7.25870449 63.55728596 7.125 68.4375 C7.08632812 69.30246094 7.04765625 70.16742188 7.0078125 71.05859375 C7.00523438 71.69925781 7.00265625 72.33992188 7 73 C4.69 73 2.38 73 0 73 C0 48.91 0 24.82 0 0 Z " fill="#2865A8" transform="translate(60,2)"/>
<path d="M0 0 C4.62 0 9.24 0 14 0 C17.14838104 6.11685459 19.99605399 12.25032701 22.59765625 18.6171875 C24.28392098 22.68489017 26.04249975 26.71818399 27.8125 30.75 C28.12687012 31.46623535 28.44124023 32.1824707 28.76513672 32.92041016 C29.50924853 34.61397724 30.25449798 36.30704441 31 38 C33.03367131 35.96632869 33.69021149 34.68384001 34.76953125 32.0703125 C35.09864502 31.28027832 35.42775879 30.49024414 35.7668457 29.67626953 C36.11191162 28.83435059 36.45697754 27.99243164 36.8125 27.125 C37.16852295 26.26890137 37.5245459 25.41280273 37.89135742 24.53076172 C39.4513299 20.77594013 40.99531564 17.01470868 42.53125 13.25 C42.9540625 12.21875 43.376875 11.1875 43.8125 10.125 C44.16957031 9.24070312 44.52664063 8.35640625 44.89453125 7.4453125 C45.25933594 6.63835938 45.62414062 5.83140625 46 5 C46.4021875 4.07574219 46.804375 3.15148437 47.21875 2.19921875 C49 0 49 0 52.13671875 -0.48828125 C53.89435547 -0.40126953 53.89435547 -0.40126953 55.6875 -0.3125 C56.86699219 -0.26738281 58.04648437 -0.22226563 59.26171875 -0.17578125 C60.61716797 -0.08876953 60.61716797 -0.08876953 62 0 C61.38700822 3.78011595 60.27270475 6.86230612 58.625 10.3125 C57.14891195 13.47073967 55.7275238 16.58921432 54.5625 19.875 C52.90423315 24.44444644 50.81591642 28.79859956 48.7578125 33.19921875 C46.30790881 38.46097598 43.97508041 43.77523586 41.62817383 49.08349609 C41.30099365 49.82293457 40.97381348 50.56237305 40.63671875 51.32421875 C40.19912231 52.3155481 40.19912231 52.3155481 39.75268555 53.3269043 C39.19610796 54.56408439 38.60669485 55.78661031 38 57 C33.38 57 28.76 57 24 57 C19.42670184 47.42217458 14.98542537 37.84072497 11 28 C10.18995924 26.04064815 9.37741014 24.08233164 8.5625 22.125 C8.15773438 21.15046875 7.75296875 20.1759375 7.3359375 19.171875 C6.35469868 16.84215008 5.3609348 14.52059712 4.3515625 12.203125 C4.07497803 11.56616699 3.79839355 10.92920898 3.51342773 10.27294922 C2.72418706 8.45930542 1.93055894 6.64757279 1.13671875 4.8359375 C0 2 0 2 0 0 Z " fill="#2664A7" transform="translate(338,13)"/>
<path d="M0 0 C16.83 0 33.66 0 51 0 C51 3.63 51 7.26 51 11 C44.73 11 38.46 11 32 11 C32 26.18 32 41.36 32 57 C27.71 57 23.42 57 19 57 C19 41.82 19 26.64 19 11 C12.73 11 6.46 11 0 11 C0 7.37 0 3.74 0 0 Z " fill="#2663A7" transform="translate(509,13)"/>
<path d="M0 0 C0 13.2 0 26.4 0 40 C-4.29 40 -8.58 40 -13 40 C-14.94082059 14.93106732 -14.94082059 14.93106732 -10.36328125 8.3125 C-3.18623755 0 -3.18623755 0 0 0 Z " fill="#2462A6" transform="translate(133,35)"/>
<path d="M0 0 C0.66 0 1.32 0 2 0 C2 7.59 2 15.18 2 23 C-2.29 23 -6.58 23 -11 23 C-12.08509366 13.47528896 -12.08509366 13.47528896 -9.06640625 9.37109375 C-7.47579991 7.82629687 -5.84228707 6.3241336 -4.1640625 4.875 C-1.81055038 3.0035738 -1.81055038 3.0035738 0 0 Z " fill="#2764A7" transform="translate(88,52)"/>
<path d="M0 0 C1.65 0.99 3.3 1.98 5 3 C8.20679449 2.93870786 8.20679449 2.93870786 11 2 C11.33 1.34 11.66 0.68 12 0 C12.66 0 13.32 0 14 0 C14 5.28 14 10.56 14 16 C9.38 16 4.76 16 0 16 C0 10.72 0 5.44 0 0 Z " fill="#2B68AA" transform="translate(98,59)"/>
<path d="M0 0 C0.66 0.33 1.32 0.66 2 1 C2 2.98 2 4.96 2 7 C1.360625 7.185625 0.72125 7.37125 0.0625 7.5625 C-2.42126213 8.94246056 -2.42126213 8.94246056 -2.75 12.625 C-2.8325 13.73875 -2.915 14.8525 -3 16 C-3.99 16 -4.98 16 -6 16 C-6.33 15.34 -6.66 14.68 -7 14 C-6.67 13.34 -6.34 12.68 -6 12 C-8.64 13.98 -11.28 15.96 -14 18 C-12.02082806 14.04165611 -10.0024505 11.64505977 -7 8.4375 C-4.42555742 5.67970322 -2.09363537 3.14045306 0 0 Z " fill="#E9F0F4" transform="translate(135,20)"/>
<path d="M0 0 C0.68707555 2.49064888 1 4.37886292 1 7 C0.01 7.33 -0.98 7.66 -2 8 C-2.99 7.01 -3.98 6.02 -5 5 C-6.58272601 6.58272601 -6.34735747 8.38034003 -6.5625 10.5625 C-6.64628906 11.38878906 -6.73007812 12.21507812 -6.81640625 13.06640625 C-6.87699219 13.70449219 -6.93757813 14.34257813 -7 15 C-7.33 15 -7.66 15 -8 15 C-8.78150669 6.05609012 -8.78150669 6.05609012 -5.6875 1.875 C-3 0 -3 0 0 0 Z " fill="#F8FAFB" transform="translate(341,20)"/>
<path d="M0 0 C0.33 0 0.66 0 1 0 C1 11.88 1 23.76 1 36 C0.67 36 0.34 36 0 36 C-0.14301599 31.49765878 -0.2854161 26.99529866 -0.42724609 22.49291992 C-0.47557937 20.96133905 -0.52408078 19.42976347 -0.57275391 17.89819336 C-0.64269534 15.69646555 -0.71203162 13.49471939 -0.78125 11.29296875 C-0.80312378 10.60849167 -0.82499756 9.92401459 -0.84753418 9.21879578 C-0.93323076 6.47747521 -1 3.74289945 -1 1 C-0.67 0.67 -0.34 0.34 0 0 Z " fill="#155AA1" transform="translate(132,35)"/>
<path d="M0 0 C0.66 0.33 1.32 0.66 2 1 C2 2.98 2 4.96 2 7 C0.125 8.0625 0.125 8.0625 -2 9 C-2.66 8.67 -3.32 8.34 -4 8 C-3.40072174 4.64404172 -2.15377564 2.62198774 0 0 Z " fill="#D8E4EC" transform="translate(135,20)"/>
<path d="M0 0 C2.0625 0.4375 2.0625 0.4375 4 1 C3.01 2.485 3.01 2.485 2 4 C1.54227937 6.73872955 1.54227937 6.73872955 1.375 9.6875 C1.30023438 10.68136719 1.22546875 11.67523438 1.1484375 12.69921875 C1.09945312 13.45847656 1.05046875 14.21773437 1 15 C0.67 15 0.34 15 0 15 C-0.19390729 12.68802845 -0.37996367 10.3753971 -0.5625 8.0625 C-0.71912109 6.13083984 -0.71912109 6.13083984 -0.87890625 4.16015625 C-0.91886719 3.11730469 -0.95882812 2.07445312 -1 1 C-0.67 0.67 -0.34 0.34 0 0 Z " fill="#D1DFE9" transform="translate(76,60)"/>
<path d="M0 0 C2.64 0.33 5.28 0.66 8 1 C8 1.33 8 1.66 8 2 C6.02 2 4.04 2 2 2 C2 5.63 2 9.26 2 13 C1.67 13 1.34 13 1 13 C0.67 8.71 0.34 4.42 0 0 Z " fill="#185CA3" transform="translate(222,13)"/>
<path d="M0 0 C2.64 0 5.28 0 8 0 C6.515 2.475 6.515 2.475 5 5 C4.01 4.67 3.02 4.34 2 4 C2 3.34 2 2.68 2 2 C1.34 1.34 0.68 0.68 0 0 Z " fill="#ECF2F5" transform="translate(185,24)"/>
<path d="M0 0 C0.66 0 1.32 0 2 0 C2 1.32 2 2.64 2 4 C4.31 4 6.62 4 9 4 C6.42786866 5.61949011 5.32330841 6.04408751 2.25 5.625 C1.5075 5.41875 0.765 5.2125 0 5 C0 3.35 0 1.7 0 0 Z " fill="#3570AC" transform="translate(120,10)"/>
<path d="M0 0 C2.22189824 2.22189824 2.92598892 4.08482708 4 7 C3.01 7.33 2.02 7.66 1 8 C-1 5 -1 5 -0.625 2.3125 C-0.41875 1.549375 -0.2125 0.78625 0 0 Z M3 4 C5 5 5 5 5 5 Z " fill="#316DAB" transform="translate(378,32)"/>
<path d="M0 0 C0.33 0 0.66 0 1 0 C1.16852247 1.60397277 1.33474886 3.2081869 1.5 4.8125 C1.5928125 5.70582031 1.685625 6.59914063 1.78125 7.51953125 C2 10 2 10 2 13 C1.01 13.495 1.01 13.495 0 14 C0 9.38 0 4.76 0 0 Z " fill="#F4F8F8" transform="translate(69,37)"/>
<path d="M0 0 C0.99 0.66 1.98 1.32 3 2 C2.34 2.66 1.68 3.32 1 4 C1.66 4.66 2.32 5.32 3 6 C1.02 6.99 1.02 6.99 -1 8 C-2.2077558 4.37673261 -1.54311128 3.35853631 0 0 Z " fill="#EBF1F4" transform="translate(398,18)"/>
<path d="M0 0 C0.99 0 1.98 0 3 0 C3.625 1.875 3.625 1.875 4 4 C3.34 4.66 2.68 5.32 2 6 C1.01 4.35 0.02 2.7 -1 1 C-0.67 0.67 -0.34 0.34 0 0 Z " fill="#EFF4F6" transform="translate(338,20)"/>
</svg>
